<svg width="24" height="24" viewBox="0 0 24 24" fill="none" xmlns="http://www.w3.org/2000/svg">
<rect x="3" y="3" width="18" height="18" rx="5" fill="#111827"/><path d="M14 6.5c.5 2.1 1.7 3.2 3.5 3.5v2.2c-1.3 0-2.5-.4-3.5-1.1v4.1a3.7 3.7 0 1 1-3.7-3.7c.3 0 .5 0 .7.1v2.4a1.4 1.4 0 1 0 1.1 1.3V6.5H14Z" fill="white"/><path d="M14 6.5c.5 2.1 1.7 3.2 3.5 3.5" stroke="#00F5FF" stroke-width="1.2"/><path d="M11 11.6a3.7 3.7 0 0 0-.7-.1 3.7 3.7 0 1 0 3.7 3.7" stroke="#FF2D55" stroke-width="1.2"/>
</svg>
