<svg width="24" height="24" viewBox="0 0 24 24" fill="none" xmlns="http://www.w3.org/2000/svg">
<path d="M12 15.5a3.5 3.5 0 1 0 0-7 3.5 3.5 0 0 0 0 7Z" fill="none" stroke="#101828" stroke-width="1.8" stroke-linecap="round" stroke-linejoin="round"/>
<path d="M19 12a7.6 7.6 0 0 0-.1-1l2-1.5-2-3.5-2.4 1a8 8 0 0 0-1.8-1L14.4 3h-4.8L9.3 6a8 8 0 0 0-1.8 1l-2.4-1-2 3.5 2 1.5a7.6 7.6 0 0 0 0 2l-2 1.5 2 3.5 2.4-1a8 8 0 0 0 1.8 1l.3 3h4.8l.3-3a8 8 0 0 0 1.8-1l2.4 1 2-3.5-2-1.5c.1-.3.1-.7.1-1Z" fill="none" stroke="#101828" stroke-width="1.8" stroke-linecap="round" stroke-linejoin="round"/>
</svg>
